<svg width="281" height="117" viewBox="0 0 281 117" fill="none" xmlns="http://www.w3.org/2000/svg">
<path d="M79.8889 52.068L84.1503 79.9511L98.1971 52.068H107.772L88.1487 89H76.8902L70.314 52.068H79.8889ZM117.898 56.5925C116.495 56.5925 115.372 56.2242 114.531 55.4877C113.724 54.7161 113.321 53.7516 113.321 52.5941C113.321 51.0158 113.934 49.6655 115.162 48.5432C116.39 47.4209 117.88 46.8597 119.634 46.8597C121.037 46.8597 122.142 47.2455 122.948 48.0171C123.755 48.7536 124.158 49.7181 124.158 50.9106C124.158 52.4538 123.545 53.7866 122.317 54.909C121.089 56.0313 119.616 56.5925 117.898 56.5925ZM121.791 59.6438L116.635 89H107.639L112.795 59.6438H121.791ZM148.881 59.3282C151.827 59.3282 154.142 60.1524 155.825 61.8008C157.509 63.4493 158.35 65.7465 158.35 68.6927C158.35 69.6747 158.245 70.7269 158.035 71.8493L154.983 89H146.04L148.881 73.0593C148.986 72.463 149.039 71.9369 149.039 71.481C149.039 70.0079 148.618 68.868 147.776 68.0614C146.969 67.2547 145.829 66.8513 144.356 66.8513C142.603 66.8513 141.13 67.395 139.937 68.4822C138.745 69.5695 137.973 71.0952 137.622 73.0593V72.7962L134.781 89H125.785L130.941 59.6438H139.937L139.253 63.5896C140.411 62.2918 141.813 61.2572 143.462 60.4856C145.145 59.714 146.952 59.3282 148.881 59.3282ZM187.961 70.6919L196.957 89H186.488L180.964 77.6889L172.336 89H162.129L177.281 70.2184L168.39 52.068H178.859L184.331 63.2213L192.801 52.068H203.007L187.961 70.6919Z" fill="#F8F0FF"/>
<path d="M47.3323 23.3164C11.4621 26.9035 9.17043 47.1331 1 58.3923C40.4572 35.9734 223.694 29.3972 273.315 42.5496C269.429 31.7886 264.148 27.7033 258.668 26.707C266.141 21.6254 268.532 20.4297 273.315 12.6578L210.243 23.3164C122.062 -18.8313 79.1173 9.06799 47.3323 23.3164Z" fill="#F8F0FF" stroke="#5E189D" stroke-width="0.597837" stroke-linecap="round"/>
<path d="M52.7129 28.9954C70.3491 15.7434 125.709 -3.70619 180.949 17.3377C171.682 25.4085 91.2136 35.4521 52.7129 28.9954Z" fill="#5E189D"/>
<path d="M204.562 20.0281L194.1 15.8433C182.383 28.2783 154.643 35.0766 146.572 39.5604C182.144 42.2507 197.986 23.5155 204.562 20.0281Z" fill="#5E189D" stroke="#F8F0FF" stroke-width="0.597837"/>
<path d="M18.6367 63.1751C25.7465 56.6743 45.146 47.3403 65.8658 62.0107C46.0601 54.5591 26.1274 59.6821 18.6367 63.1751Z" fill="#5E189D" stroke="#5E189D" stroke-width="0.597837"/>
<path d="M197.986 52.4138C205.096 45.913 224.496 36.5791 245.215 51.2495C225.41 43.7979 205.477 48.9209 197.986 52.4138Z" fill="#5E189D" stroke="#5E189D" stroke-width="0.597837"/>
<path d="M41.128 69.0786C35.04 115.132 195.225 143.164 223.255 61.0693" stroke="#F8F0FF" stroke-width="4.00463"/>
</svg>
